<svg width="20" height="18" viewBox="0 0 20 18" fill="none" xmlns="http://www.w3.org/2000/svg">
<mask id="path-1-outside-1_285_1177" maskUnits="userSpaceOnUse" x="0" y="0" width="20" height="18" fill="black">
<rect fill="white" width="20" height="18"/>
<path d="M9.75995 1.00187C9.79395 1.00143 9.82795 1.00099 9.86299 1.00054C12.3899 0.974579 14.3267 1.88861 16.1812 3.77632C16.2357 3.83119 16.2905 3.88578 16.3463 3.93898C16.5799 4.16244 16.7983 4.40188 17.0156 4.64471C17.0781 4.71455 17.141 4.78402 17.204 4.85349C17.4613 5.13943 17.698 5.43557 17.9219 5.75535C17.9426 5.78429 17.9633 5.81323 17.9846 5.84305C18.6029 6.71561 19.0777 7.74344 18.9894 8.88425C18.9181 9.48221 18.6735 10.0206 18.3323 10.4844C18.2363 10.6826 18.2723 10.8783 18.3247 11.0868C18.3427 11.1517 18.3611 11.2165 18.3799 11.2812C18.5916 12.0222 18.5956 12.7772 18.2773 13.482C18.1349 13.7597 17.9654 13.9879 17.7618 14.2119C17.7242 14.2538 17.7242 14.2538 17.6859 14.2965C16.9256 15.0906 15.8191 15.4444 14.8389 15.7332C14.8383 15.7765 14.8377 15.8198 14.8371 15.8644C14.8348 16.0261 14.8317 16.1877 14.8284 16.3493C14.8271 16.419 14.8259 16.4888 14.825 16.5586C14.8237 16.6593 14.8216 16.7599 14.8193 16.8605C14.8191 16.8914 14.8188 16.9223 14.8186 16.9542C14.8131 17.1595 14.7754 17.3035 14.6787 17.4782C14.4876 17.585 14.2044 17.5425 13.9922 17.5459C13.9247 17.5474 13.8572 17.5495 13.7898 17.5524C13.2336 17.5758 13.2336 17.5758 13.056 17.4528C12.9829 17.3613 12.9302 17.272 12.8769 17.165C12.8426 17.1113 12.808 17.0579 12.7729 17.0049C12.7398 16.9502 12.7069 16.8955 12.6742 16.8406C12.6365 16.7783 12.5987 16.716 12.5608 16.6537C12.5409 16.6209 12.521 16.588 12.5005 16.5542C12.3837 16.3624 12.265 16.1722 12.1462 15.982C12.1236 15.9456 12.1009 15.9091 12.0775 15.8715C11.6935 15.2214 11.6935 15.2214 11.0977 14.8691C10.6351 14.7182 10.2327 14.4932 9.85786 14.1493C9.62475 13.9887 9.39833 14.0379 9.14324 14.0972C8.23376 14.286 7.21646 14.1868 6.42023 13.6274C6.00908 13.3028 5.63194 12.8769 5.4696 12.3327C5.4696 12.2884 5.4696 12.2441 5.4696 12.1984C5.41781 12.2236 5.41781 12.2236 5.36497 12.2493C4.60563 12.6085 3.75746 12.9149 2.9471 12.6011C2.09945 12.1963 1.54864 11.2728 1.18535 10.3639C0.9239 9.631 0.942326 8.76055 1.21986 8.03677C1.48049 7.39204 1.82016 6.81537 2.25376 6.29839C2.36169 6.13506 2.38065 6.028 2.40406 5.82806C2.52068 4.99202 2.877 4.26322 3.3475 3.60766C3.37994 3.56025 3.37994 3.56025 3.41303 3.51188C3.8645 2.88665 4.59333 2.37862 5.30944 2.26535C5.40035 2.26201 5.49128 2.25924 5.58221 2.25696C5.83602 2.24148 6.01223 2.15248 6.22694 2.01305C7.2488 1.35629 8.58612 1.01447 9.75995 1.00187ZM8.47258 1.9074C8.41834 1.92214 8.41834 1.92214 8.36302 1.93718C7.86385 2.07723 7.38633 2.26987 6.91103 2.48907C7.02096 2.58477 7.13256 2.66438 7.25387 2.74075C7.83694 3.12665 7.83694 3.12665 7.95206 3.38394C7.97011 3.70156 7.97011 3.70156 7.91202 3.83138C7.77673 3.90697 7.65568 3.91651 7.51162 3.87612C7.42542 3.80947 7.3544 3.73415 7.27905 3.65275C6.78456 3.14647 6.20949 2.98681 5.55779 3.01797C4.90311 3.0775 4.32376 3.50867 3.89179 4.03919C3.39579 4.7369 2.94849 5.69098 3.02718 6.60548C3.11912 7.11546 3.31422 7.50002 3.69941 7.79852C4.00671 8.00602 4.32676 8.12055 4.67397 8.21659C4.78893 8.26099 4.78893 8.26099 4.86901 8.39522C4.88577 8.5669 4.89088 8.66869 4.80895 8.81749C4.6633 8.91921 4.55254 8.91896 4.38853 8.8874C3.87907 8.73951 3.38823 8.51018 3.00669 8.09477C2.95012 8.02752 2.95012 8.02752 2.86702 8.03727C2.85629 8.01189 2.84555 7.98651 2.83449 7.96037C2.7846 7.85328 2.72786 7.75653 2.66682 7.65695C2.59107 7.53336 2.52395 7.41214 2.46662 7.27663C2.04237 7.72438 1.73353 8.40093 1.69633 9.05519C1.67649 9.89176 1.93845 10.5601 2.4391 11.1749C2.48718 11.2305 2.48718 11.2305 2.53623 11.2871C2.62678 11.393 2.62678 11.393 2.70671 11.5096C2.90413 11.7732 3.20583 11.9292 3.50766 11.9747C3.80601 11.9996 4.05771 11.945 4.34098 11.8433C4.38058 11.8294 4.42018 11.8155 4.46098 11.8011C5.22444 11.5254 6.22043 11.1538 6.63576 10.322C6.74137 10.056 6.75303 9.7895 6.67079 9.51381C6.65677 9.34141 6.6486 9.23929 6.73335 9.09154C6.86867 8.99461 6.95347 8.99644 7.11123 9.02163C7.28853 9.16086 7.32691 9.33644 7.3693 9.56537C7.43121 10.0195 7.3276 10.4568 7.10278 10.8379C6.81255 11.2742 6.48545 11.5648 6.0702 11.8405C6.18396 12.3251 6.41992 12.7108 6.80108 12.9818C7.51058 13.4126 8.32387 13.5086 9.10821 13.3366C9.55803 13.2381 9.88108 13.2687 10.2744 13.5407C10.3407 13.5923 10.4066 13.6445 10.4721 13.6973C10.7424 13.9141 11.0251 14.0478 11.3419 14.159C11.9589 14.3763 12.2383 14.758 12.5967 15.3389C12.6149 15.3681 12.6332 15.3973 12.652 15.4274C12.7695 15.6171 12.8789 15.8101 12.985 16.0081C13.0382 16.1029 13.0915 16.1977 13.1447 16.2925C13.1799 16.3619 13.1799 16.3619 13.2158 16.4327C13.3441 16.6642 13.3441 16.6642 13.5548 16.7821C13.7445 16.8023 13.9294 16.7865 14.1182 16.7623C14.119 16.7169 14.1198 16.6715 14.1206 16.6247C14.1236 16.4564 14.1272 16.288 14.1309 16.1197C14.1324 16.0468 14.1338 15.9739 14.1351 15.9011C14.1369 15.7963 14.1392 15.6916 14.1416 15.5869C14.1421 15.5543 14.1426 15.5217 14.143 15.4881C14.1474 15.3229 14.1542 15.2478 14.2383 15.1068C14.3475 15.0629 14.3475 15.0629 14.4863 15.0248C14.537 15.0104 14.5877 14.9961 14.6399 14.9813C14.6801 14.9703 14.6801 14.9703 14.7211 14.959C14.8593 14.9208 14.9971 14.8806 15.1348 14.8402C15.1617 14.8323 15.1886 14.8244 15.2164 14.8163C16.0608 14.5662 17.1161 14.0978 17.5944 13.2294C17.859 12.6616 17.9241 12.1231 17.7565 11.5004C17.7213 11.3842 17.7213 11.3842 17.6542 11.2476C17.5564 10.9353 17.5352 10.5234 17.6617 10.2157C17.7593 10.0358 17.8862 9.87811 18.0059 9.71638C18.3051 9.27216 18.3251 8.75184 18.2823 8.21624C18.178 7.5011 17.7945 6.85127 17.4014 6.29227C17.3595 6.23258 17.3595 6.23258 17.3168 6.17167C16.9959 5.72452 16.6455 5.30978 16.2853 4.90243C16.2601 4.87363 16.2348 4.84484 16.2088 4.81517C16.0809 4.6719 15.9624 4.55205 15.7998 4.45779C15.7867 4.48813 15.7735 4.51846 15.76 4.54972C15.4536 5.21951 15.0263 5.62903 14.4016 5.8964C14.2725 5.93613 14.1713 5.94765 14.0381 5.93432C13.9205 5.84763 13.9205 5.84763 13.8379 5.71061C13.8333 5.57165 13.8513 5.44339 13.8779 5.30791C13.9022 5.30134 13.9265 5.29476 13.9514 5.28799C14.4658 5.13414 14.8674 4.82407 15.1412 4.31045C15.2411 4.10482 15.2411 4.10482 15.2393 3.87612C15.0254 3.61477 14.7566 3.4106 14.4935 3.21615C14.4575 3.1895 14.4215 3.16285 14.3843 3.13539C13.8497 2.74766 13.286 2.41485 12.6918 2.15629C12.6607 2.14228 12.6297 2.12827 12.5977 2.11383C12.4653 2.05996 12.3835 2.03065 12.2487 2.08533C12.1375 2.19425 12.0381 2.30932 11.9435 2.43594C11.9244 2.46139 11.9054 2.48685 11.8857 2.51308C11.3781 3.21008 11.142 3.96506 11.1953 4.86048C11.2322 5.12949 11.2996 5.36824 11.4055 5.61273C11.4826 5.79366 11.4858 5.91672 11.4355 6.1133C11.3388 6.22135 11.3103 6.21604 11.1778 6.21677C11.1464 6.21752 11.1151 6.21827 11.0828 6.21904C10.9693 6.198 10.9429 6.17236 10.875 6.06855C10.5035 5.19717 10.4286 4.25967 10.7148 3.3392C10.8731 2.87623 11.0815 2.47653 11.3554 2.08638C11.4105 1.99792 11.4631 1.90831 11.5156 1.81792C11.0896 1.72536 10.6744 1.7105 10.2418 1.71165C10.2074 1.71168 10.173 1.7117 10.1376 1.71172C9.56986 1.71357 9.026 1.75622 8.47258 1.9074Z"/>
</mask>
<path d="M9.75995 1.00187C9.79395 1.00143 9.82795 1.00099 9.86299 1.00054C12.3899 0.974579 14.3267 1.88861 16.1812 3.77632C16.2357 3.83119 16.2905 3.88578 16.3463 3.93898C16.5799 4.16244 16.7983 4.40188 17.0156 4.64471C17.0781 4.71455 17.141 4.78402 17.204 4.85349C17.4613 5.13943 17.698 5.43557 17.9219 5.75535C17.9426 5.78429 17.9633 5.81323 17.9846 5.84305C18.6029 6.71561 19.0777 7.74344 18.9894 8.88425C18.9181 9.48221 18.6735 10.0206 18.3323 10.4844C18.2363 10.6826 18.2723 10.8783 18.3247 11.0868C18.3427 11.1517 18.3611 11.2165 18.3799 11.2812C18.5916 12.0222 18.5956 12.7772 18.2773 13.482C18.1349 13.7597 17.9654 13.9879 17.7618 14.2119C17.7242 14.2538 17.7242 14.2538 17.6859 14.2965C16.9256 15.0906 15.8191 15.4444 14.8389 15.7332C14.8383 15.7765 14.8377 15.8198 14.8371 15.8644C14.8348 16.0261 14.8317 16.1877 14.8284 16.3493C14.8271 16.419 14.8259 16.4888 14.825 16.5586C14.8237 16.6593 14.8216 16.7599 14.8193 16.8605C14.8191 16.8914 14.8188 16.9223 14.8186 16.9542C14.8131 17.1595 14.7754 17.3035 14.6787 17.4782C14.4876 17.585 14.2044 17.5425 13.9922 17.5459C13.9247 17.5474 13.8572 17.5495 13.7898 17.5524C13.2336 17.5758 13.2336 17.5758 13.056 17.4528C12.9829 17.3613 12.9302 17.272 12.8769 17.165C12.8426 17.1113 12.808 17.0579 12.7729 17.0049C12.7398 16.9502 12.7069 16.8955 12.6742 16.8406C12.6365 16.7783 12.5987 16.716 12.5608 16.6537C12.5409 16.6209 12.521 16.588 12.5005 16.5542C12.3837 16.3624 12.265 16.1722 12.1462 15.982C12.1236 15.9456 12.1009 15.9091 12.0775 15.8715C11.6935 15.2214 11.6935 15.2214 11.0977 14.8691C10.6351 14.7182 10.2327 14.4932 9.85786 14.1493C9.62475 13.9887 9.39833 14.0379 9.14324 14.0972C8.23376 14.286 7.21646 14.1868 6.42023 13.6274C6.00908 13.3028 5.63194 12.8769 5.4696 12.3327C5.4696 12.2884 5.4696 12.2441 5.4696 12.1984C5.41781 12.2236 5.41781 12.2236 5.36497 12.2493C4.60563 12.6085 3.75746 12.9149 2.9471 12.6011C2.09945 12.1963 1.54864 11.2728 1.18535 10.3639C0.9239 9.631 0.942326 8.76055 1.21986 8.03677C1.48049 7.39204 1.82016 6.81537 2.25376 6.29839C2.36169 6.13506 2.38065 6.028 2.40406 5.82806C2.52068 4.99202 2.877 4.26322 3.3475 3.60766C3.37994 3.56025 3.37994 3.56025 3.41303 3.51188C3.8645 2.88665 4.59333 2.37862 5.30944 2.26535C5.40035 2.26201 5.49128 2.25924 5.58221 2.25696C5.83602 2.24148 6.01223 2.15248 6.22694 2.01305C7.2488 1.35629 8.58612 1.01447 9.75995 1.00187ZM8.47258 1.9074C8.41834 1.92214 8.41834 1.92214 8.36302 1.93718C7.86385 2.07723 7.38633 2.26987 6.91103 2.48907C7.02096 2.58477 7.13256 2.66438 7.25387 2.74075C7.83694 3.12665 7.83694 3.12665 7.95206 3.38394C7.97011 3.70156 7.97011 3.70156 7.91202 3.83138C7.77673 3.90697 7.65568 3.91651 7.51162 3.87612C7.42542 3.80947 7.3544 3.73415 7.27905 3.65275C6.78456 3.14647 6.20949 2.98681 5.55779 3.01797C4.90311 3.0775 4.32376 3.50867 3.89179 4.03919C3.39579 4.7369 2.94849 5.69098 3.02718 6.60548C3.11912 7.11546 3.31422 7.50002 3.69941 7.79852C4.00671 8.00602 4.32676 8.12055 4.67397 8.21659C4.78893 8.26099 4.78893 8.26099 4.86901 8.39522C4.88577 8.5669 4.89088 8.66869 4.80895 8.81749C4.6633 8.91921 4.55254 8.91896 4.38853 8.8874C3.87907 8.73951 3.38823 8.51018 3.00669 8.09477C2.95012 8.02752 2.95012 8.02752 2.86702 8.03727C2.85629 8.01189 2.84555 7.98651 2.83449 7.96037C2.7846 7.85328 2.72786 7.75653 2.66682 7.65695C2.59107 7.53336 2.52395 7.41214 2.46662 7.27663C2.04237 7.72438 1.73353 8.40093 1.69633 9.05519C1.67649 9.89176 1.93845 10.5601 2.4391 11.1749C2.48718 11.2305 2.48718 11.2305 2.53623 11.2871C2.62678 11.393 2.62678 11.393 2.70671 11.5096C2.90413 11.7732 3.20583 11.9292 3.50766 11.9747C3.80601 11.9996 4.05771 11.945 4.34098 11.8433C4.38058 11.8294 4.42018 11.8155 4.46098 11.8011C5.22444 11.5254 6.22043 11.1538 6.63576 10.322C6.74137 10.056 6.75303 9.7895 6.67079 9.51381C6.65677 9.34141 6.6486 9.23929 6.73335 9.09154C6.86867 8.99461 6.95347 8.99644 7.11123 9.02163C7.28853 9.16086 7.32691 9.33644 7.3693 9.56537C7.43121 10.0195 7.3276 10.4568 7.10278 10.8379C6.81255 11.2742 6.48545 11.5648 6.0702 11.8405C6.18396 12.3251 6.41992 12.7108 6.80108 12.9818C7.51058 13.4126 8.32387 13.5086 9.10821 13.3366C9.55803 13.2381 9.88108 13.2687 10.2744 13.5407C10.3407 13.5923 10.4066 13.6445 10.4721 13.6973C10.7424 13.9141 11.0251 14.0478 11.3419 14.159C11.9589 14.3763 12.2383 14.758 12.5967 15.3389C12.6149 15.3681 12.6332 15.3973 12.652 15.4274C12.7695 15.6171 12.8789 15.8101 12.985 16.0081C13.0382 16.1029 13.0915 16.1977 13.1447 16.2925C13.1799 16.3619 13.1799 16.3619 13.2158 16.4327C13.3441 16.6642 13.3441 16.6642 13.5548 16.7821C13.7445 16.8023 13.9294 16.7865 14.1182 16.7623C14.119 16.7169 14.1198 16.6715 14.1206 16.6247C14.1236 16.4564 14.1272 16.288 14.1309 16.1197C14.1324 16.0468 14.1338 15.9739 14.1351 15.9011C14.1369 15.7963 14.1392 15.6916 14.1416 15.5869C14.1421 15.5543 14.1426 15.5217 14.143 15.4881C14.1474 15.3229 14.1542 15.2478 14.2383 15.1068C14.3475 15.0629 14.3475 15.0629 14.4863 15.0248C14.537 15.0104 14.5877 14.9961 14.6399 14.9813C14.6801 14.9703 14.6801 14.9703 14.7211 14.959C14.8593 14.9208 14.9971 14.8806 15.1348 14.8402C15.1617 14.8323 15.1886 14.8244 15.2164 14.8163C16.0608 14.5662 17.1161 14.0978 17.5944 13.2294C17.859 12.6616 17.9241 12.1231 17.7565 11.5004C17.7213 11.3842 17.7213 11.3842 17.6542 11.2476C17.5564 10.9353 17.5352 10.5234 17.6617 10.2157C17.7593 10.0358 17.8862 9.87811 18.0059 9.71638C18.3051 9.27216 18.3251 8.75184 18.2823 8.21624C18.178 7.5011 17.7945 6.85127 17.4014 6.29227C17.3595 6.23258 17.3595 6.23258 17.3168 6.17167C16.9959 5.72452 16.6455 5.30978 16.2853 4.90243C16.2601 4.87363 16.2348 4.84484 16.2088 4.81517C16.0809 4.6719 15.9624 4.55205 15.7998 4.45779C15.7867 4.48813 15.7735 4.51846 15.76 4.54972C15.4536 5.21951 15.0263 5.62903 14.4016 5.8964C14.2725 5.93613 14.1713 5.94765 14.0381 5.93432C13.9205 5.84763 13.9205 5.84763 13.8379 5.71061C13.8333 5.57165 13.8513 5.44339 13.8779 5.30791C13.9022 5.30134 13.9265 5.29476 13.9514 5.28799C14.4658 5.13414 14.8674 4.82407 15.1412 4.31045C15.2411 4.10482 15.2411 4.10482 15.2393 3.87612C15.0254 3.61477 14.7566 3.4106 14.4935 3.21615C14.4575 3.1895 14.4215 3.16285 14.3843 3.13539C13.8497 2.74766 13.286 2.41485 12.6918 2.15629C12.6607 2.14228 12.6297 2.12827 12.5977 2.11383C12.4653 2.05996 12.3835 2.03065 12.2487 2.08533C12.1375 2.19425 12.0381 2.30932 11.9435 2.43594C11.9244 2.46139 11.9054 2.48685 11.8857 2.51308C11.3781 3.21008 11.142 3.96506 11.1953 4.86048C11.2322 5.12949 11.2996 5.36824 11.4055 5.61273C11.4826 5.79366 11.4858 5.91672 11.4355 6.1133C11.3388 6.22135 11.3103 6.21604 11.1778 6.21677C11.1464 6.21752 11.1151 6.21827 11.0828 6.21904C10.9693 6.198 10.9429 6.17236 10.875 6.06855C10.5035 5.19717 10.4286 4.25967 10.7148 3.3392C10.8731 2.87623 11.0815 2.47653 11.3554 2.08638C11.4105 1.99792 11.4631 1.90831 11.5156 1.81792C11.0896 1.72536 10.6744 1.7105 10.2418 1.71165C10.2074 1.71168 10.173 1.7117 10.1376 1.71172C9.56986 1.71357 9.026 1.75622 8.47258 1.9074Z" fill="#333333"/>
<path d="M9.75995 1.00187C9.79395 1.00143 9.82795 1.00099 9.86299 1.00054C12.3899 0.974579 14.3267 1.88861 16.1812 3.77632C16.2357 3.83119 16.2905 3.88578 16.3463 3.93898C16.5799 4.16244 16.7983 4.40188 17.0156 4.64471C17.0781 4.71455 17.141 4.78402 17.204 4.85349C17.4613 5.13943 17.698 5.43557 17.9219 5.75535C17.9426 5.78429 17.9633 5.81323 17.9846 5.84305C18.6029 6.71561 19.0777 7.74344 18.9894 8.88425C18.9181 9.48221 18.6735 10.0206 18.3323 10.4844C18.2363 10.6826 18.2723 10.8783 18.3247 11.0868C18.3427 11.1517 18.3611 11.2165 18.3799 11.2812C18.5916 12.0222 18.5956 12.7772 18.2773 13.482C18.1349 13.7597 17.9654 13.9879 17.7618 14.2119C17.7242 14.2538 17.7242 14.2538 17.6859 14.2965C16.9256 15.0906 15.8191 15.4444 14.8389 15.7332C14.8383 15.7765 14.8377 15.8198 14.8371 15.8644C14.8348 16.0261 14.8317 16.1877 14.8284 16.3493C14.8271 16.419 14.8259 16.4888 14.825 16.5586C14.8237 16.6593 14.8216 16.7599 14.8193 16.8605C14.8191 16.8914 14.8188 16.9223 14.8186 16.9542C14.8131 17.1595 14.7754 17.3035 14.6787 17.4782C14.4876 17.585 14.2044 17.5425 13.9922 17.5459C13.9247 17.5474 13.8572 17.5495 13.7898 17.5524C13.2336 17.5758 13.2336 17.5758 13.056 17.4528C12.9829 17.3613 12.9302 17.272 12.8769 17.165C12.8426 17.1113 12.808 17.0579 12.7729 17.0049C12.7398 16.9502 12.7069 16.8955 12.6742 16.8406C12.6365 16.7783 12.5987 16.716 12.5608 16.6537C12.5409 16.6209 12.521 16.588 12.5005 16.5542C12.3837 16.3624 12.265 16.1722 12.1462 15.982C12.1236 15.9456 12.1009 15.9091 12.0775 15.8715C11.6935 15.2214 11.6935 15.2214 11.0977 14.8691C10.6351 14.7182 10.2327 14.4932 9.85786 14.1493C9.62475 13.9887 9.39833 14.0379 9.14324 14.0972C8.23376 14.286 7.21646 14.1868 6.42023 13.6274C6.00908 13.3028 5.63194 12.8769 5.4696 12.3327C5.4696 12.2884 5.4696 12.2441 5.4696 12.1984C5.41781 12.2236 5.41781 12.2236 5.36497 12.2493C4.60563 12.6085 3.75746 12.9149 2.9471 12.6011C2.09945 12.1963 1.54864 11.2728 1.18535 10.3639C0.9239 9.631 0.942326 8.76055 1.21986 8.03677C1.48049 7.39204 1.82016 6.81537 2.25376 6.29839C2.36169 6.13506 2.38065 6.028 2.40406 5.82806C2.52068 4.99202 2.877 4.26322 3.3475 3.60766C3.37994 3.56025 3.37994 3.56025 3.41303 3.51188C3.8645 2.88665 4.59333 2.37862 5.30944 2.26535C5.40035 2.26201 5.49128 2.25924 5.58221 2.25696C5.83602 2.24148 6.01223 2.15248 6.22694 2.01305C7.2488 1.35629 8.58612 1.01447 9.75995 1.00187ZM8.47258 1.9074C8.41834 1.92214 8.41834 1.92214 8.36302 1.93718C7.86385 2.07723 7.38633 2.26987 6.91103 2.48907C7.02096 2.58477 7.13256 2.66438 7.25387 2.74075C7.83694 3.12665 7.83694 3.12665 7.95206 3.38394C7.97011 3.70156 7.97011 3.70156 7.91202 3.83138C7.77673 3.90697 7.65568 3.91651 7.51162 3.87612C7.42542 3.80947 7.3544 3.73415 7.27905 3.65275C6.78456 3.14647 6.20949 2.98681 5.55779 3.01797C4.90311 3.0775 4.32376 3.50867 3.89179 4.03919C3.39579 4.7369 2.94849 5.69098 3.02718 6.60548C3.11912 7.11546 3.31422 7.50002 3.69941 7.79852C4.00671 8.00602 4.32676 8.12055 4.67397 8.21659C4.78893 8.26099 4.78893 8.26099 4.86901 8.39522C4.88577 8.5669 4.89088 8.66869 4.80895 8.81749C4.6633 8.91921 4.55254 8.91896 4.38853 8.8874C3.87907 8.73951 3.38823 8.51018 3.00669 8.09477C2.95012 8.02752 2.95012 8.02752 2.86702 8.03727C2.85629 8.01189 2.84555 7.98651 2.83449 7.96037C2.7846 7.85328 2.72786 7.75653 2.66682 7.65695C2.59107 7.53336 2.52395 7.41214 2.46662 7.27663C2.04237 7.72438 1.73353 8.40093 1.69633 9.05519C1.67649 9.89176 1.93845 10.5601 2.4391 11.1749C2.48718 11.2305 2.48718 11.2305 2.53623 11.2871C2.62678 11.393 2.62678 11.393 2.70671 11.5096C2.90413 11.7732 3.20583 11.9292 3.50766 11.9747C3.80601 11.9996 4.05771 11.945 4.34098 11.8433C4.38058 11.8294 4.42018 11.8155 4.46098 11.8011C5.22444 11.5254 6.22043 11.1538 6.63576 10.322C6.74137 10.056 6.75303 9.7895 6.67079 9.51381C6.65677 9.34141 6.6486 9.23929 6.73335 9.09154C6.86867 8.99461 6.95347 8.99644 7.11123 9.02163C7.28853 9.16086 7.32691 9.33644 7.3693 9.56537C7.43121 10.0195 7.3276 10.4568 7.10278 10.8379C6.81255 11.2742 6.48545 11.5648 6.0702 11.8405C6.18396 12.3251 6.41992 12.7108 6.80108 12.9818C7.51058 13.4126 8.32387 13.5086 9.10821 13.3366C9.55803 13.2381 9.88108 13.2687 10.2744 13.5407C10.3407 13.5923 10.4066 13.6445 10.4721 13.6973C10.7424 13.9141 11.0251 14.0478 11.3419 14.159C11.9589 14.3763 12.2383 14.758 12.5967 15.3389C12.6149 15.3681 12.6332 15.3973 12.652 15.4274C12.7695 15.6171 12.8789 15.8101 12.985 16.0081C13.0382 16.1029 13.0915 16.1977 13.1447 16.2925C13.1799 16.3619 13.1799 16.3619 13.2158 16.4327C13.3441 16.6642 13.3441 16.6642 13.5548 16.7821C13.7445 16.8023 13.9294 16.7865 14.1182 16.7623C14.119 16.7169 14.1198 16.6715 14.1206 16.6247C14.1236 16.4564 14.1272 16.288 14.1309 16.1197C14.1324 16.0468 14.1338 15.9739 14.1351 15.9011C14.1369 15.7963 14.1392 15.6916 14.1416 15.5869C14.1421 15.5543 14.1426 15.5217 14.143 15.4881C14.1474 15.3229 14.1542 15.2478 14.2383 15.1068C14.3475 15.0629 14.3475 15.0629 14.4863 15.0248C14.537 15.0104 14.5877 14.9961 14.6399 14.9813C14.6801 14.9703 14.6801 14.9703 14.7211 14.959C14.8593 14.9208 14.9971 14.8806 15.1348 14.8402C15.1617 14.8323 15.1886 14.8244 15.2164 14.8163C16.0608 14.5662 17.1161 14.0978 17.5944 13.2294C17.859 12.6616 17.9241 12.1231 17.7565 11.5004C17.7213 11.3842 17.7213 11.3842 17.6542 11.2476C17.5564 10.9353 17.5352 10.5234 17.6617 10.2157C17.7593 10.0358 17.8862 9.87811 18.0059 9.71638C18.3051 9.27216 18.3251 8.75184 18.2823 8.21624C18.178 7.5011 17.7945 6.85127 17.4014 6.29227C17.3595 6.23258 17.3595 6.23258 17.3168 6.17167C16.9959 5.72452 16.6455 5.30978 16.2853 4.90243C16.2601 4.87363 16.2348 4.84484 16.2088 4.81517C16.0809 4.6719 15.9624 4.55205 15.7998 4.45779C15.7867 4.48813 15.7735 4.51846 15.76 4.54972C15.4536 5.21951 15.0263 5.62903 14.4016 5.8964C14.2725 5.93613 14.1713 5.94765 14.0381 5.93432C13.9205 5.84763 13.9205 5.84763 13.8379 5.71061C13.8333 5.57165 13.8513 5.44339 13.8779 5.30791C13.9022 5.30134 13.9265 5.29476 13.9514 5.28799C14.4658 5.13414 14.8674 4.82407 15.1412 4.31045C15.2411 4.10482 15.2411 4.10482 15.2393 3.87612C15.0254 3.61477 14.7566 3.4106 14.4935 3.21615C14.4575 3.1895 14.4215 3.16285 14.3843 3.13539C13.8497 2.74766 13.286 2.41485 12.6918 2.15629C12.6607 2.14228 12.6297 2.12827 12.5977 2.11383C12.4653 2.05996 12.3835 2.03065 12.2487 2.08533C12.1375 2.19425 12.0381 2.30932 11.9435 2.43594C11.9244 2.46139 11.9054 2.48685 11.8857 2.51308C11.3781 3.21008 11.142 3.96506 11.1953 4.86048C11.2322 5.12949 11.2996 5.36824 11.4055 5.61273C11.4826 5.79366 11.4858 5.91672 11.4355 6.1133C11.3388 6.22135 11.3103 6.21604 11.1778 6.21677C11.1464 6.21752 11.1151 6.21827 11.0828 6.21904C10.9693 6.198 10.9429 6.17236 10.875 6.06855C10.5035 5.19717 10.4286 4.25967 10.7148 3.3392C10.8731 2.87623 11.0815 2.47653 11.3554 2.08638C11.4105 1.99792 11.4631 1.90831 11.5156 1.81792C11.0896 1.72536 10.6744 1.7105 10.2418 1.71165C10.2074 1.71168 10.173 1.7117 10.1376 1.71172C9.56986 1.71357 9.026 1.75622 8.47258 1.9074Z" stroke="#333333" stroke-width="0.6" mask="url(#path-1-outside-1_285_1177)"/>
<path d="M12.5811 6.3877L12.5938 6.38867L12.6064 6.39062L12.7393 6.42969C13.0016 6.52601 13.2346 6.73199 13.4033 6.94824L13.4814 7.05664L13.4863 7.06348L13.4902 7.07129C13.8759 7.80205 13.9352 8.60207 13.7607 9.41016L13.7598 9.41309C13.6956 9.68024 13.6144 9.92137 13.5078 10.166C13.6661 10.2682 13.7938 10.4116 13.9023 10.5234H13.9033L13.9814 10.6006L13.9834 10.6035L14.1543 10.7949C14.3251 11.0004 14.4932 11.2458 14.6309 11.5078C14.8136 11.8558 14.9494 12.2438 14.9639 12.6133V12.6211C14.963 12.6955 14.9624 12.7654 14.9424 12.833C14.9214 12.9041 14.8824 12.9621 14.834 13.0273L14.8154 13.0537L14.7871 13.0693C14.7153 13.1095 14.6467 13.1416 14.5693 13.1562C14.4904 13.1712 14.4148 13.165 14.3311 13.1494L14.2988 13.1436L14.2725 13.125C14.0449 12.9646 13.9624 12.7688 13.8828 12.54L13.7803 12.2803C13.5308 11.6823 13.1957 11.1432 12.6816 10.8779C11.9826 10.5704 11.2943 10.6447 10.5947 10.9766C10.4385 11.0532 10.2871 11.1291 10.1416 11.2158L10.1338 11.2207L10.0645 11.0869L10.1328 11.2207C9.96967 11.304 9.82184 11.2847 9.69922 11.2725L9.67383 11.2695L9.65039 11.2588C9.60962 11.2396 9.56469 11.2196 9.52637 11.1875C9.48893 11.1561 9.46057 11.1156 9.43262 11.0771L9.41699 11.0566L9.41016 11.0312C9.37108 10.9002 9.34465 10.7683 9.36523 10.6113L9.36914 10.583L9.38281 10.5586C9.48339 10.3764 9.60911 10.2666 9.74902 10.1787L9.89355 10.0957C9.93443 10.0734 9.93501 10.073 9.97754 10.0498L9.97949 10.0488L10.3057 9.89258C11.0337 9.57889 11.8366 9.46545 12.6123 9.68164C12.6389 9.58281 12.6661 9.484 12.6924 9.38477V9.38379L12.7256 9.26172C12.8605 8.74595 12.8975 8.26944 12.7041 7.79688C12.6057 7.61801 12.4595 7.52386 12.2598 7.39258L12.25 7.38672L12.251 7.38574C12.1975 7.34453 12.1453 7.30282 12.1035 7.24707C12.0598 7.18879 12.0335 7.1245 12.0117 7.04688L12.0049 7.02344L12.0068 7C12.0129 6.87111 12.0157 6.78356 12.0312 6.71777C12.0502 6.63785 12.0876 6.58738 12.125 6.5332L12.1357 6.51758L12.1504 6.50488C12.2231 6.44191 12.2961 6.40771 12.376 6.39355C12.4117 6.38726 12.4485 6.38486 12.4834 6.38477L12.5811 6.3877Z" fill="#333333" stroke="#333333" stroke-width="0.3"/>
<path d="M8.79199 4.56641L8.92969 4.58008L8.97266 4.58398L9.00586 4.61035C9.06062 4.65332 9.10195 4.68572 9.1377 4.72559L9.24023 4.87305L9.25879 4.90234L9.2627 4.9375C9.29458 5.24985 9.21322 5.45312 9.09863 5.69336L9.05762 5.78418V5.78516L8.9209 5.72266L9.05664 5.78516C8.97699 5.95756 8.88674 6.10176 8.78418 6.24805C8.79076 6.46381 8.92858 6.69586 9.08203 6.89258C9.31772 7.12808 9.58329 7.14776 9.94141 7.15234H9.94434L10.085 7.1582C10.1251 7.16081 10.1595 7.16491 10.1904 7.17188C10.2261 7.17996 10.2573 7.19184 10.2861 7.20605L10.3701 7.25391L10.3936 7.26758L10.4111 7.28906C10.5447 7.45517 10.5425 7.6129 10.5449 7.76855V7.7959L10.5361 7.82129C10.5108 7.89214 10.4833 7.96022 10.4404 8.02051C10.3951 8.08433 10.3386 8.13115 10.2666 8.17383L10.2529 8.18164L10.2383 8.18652C10.1513 8.21614 10.0673 8.23212 9.98535 8.24023L9.74512 8.24805H9.65137C9.39926 8.24237 9.17345 8.20056 8.93262 8.08691V8.08789C8.90552 8.07602 8.8785 8.06399 8.85059 8.05176L8.84473 8.04883C8.42749 7.84393 8.14873 7.45807 7.90332 7.10645L7.90039 7.10156C7.88317 7.0749 7.87262 7.05867 7.86426 7.04688C7.86207 7.04379 7.85977 7.04182 7.8584 7.04004C7.80499 7.0587 7.75123 7.07828 7.69727 7.09961L7.69238 7.10156C7.0994 7.31174 6.46443 7.30398 5.88281 7.0166L5.875 7.0127L5.86816 7.00879C5.80345 6.96754 5.74641 6.92221 5.7002 6.85938C5.67718 6.82808 5.65878 6.79505 5.64355 6.75977L5.60547 6.64746L5.59961 6.62598V6.60352C5.60447 6.44584 5.61316 6.30235 5.70703 6.13672L5.72363 6.10742L5.75195 6.08789C5.81686 6.04287 5.87739 6.01136 5.94531 5.99219C6.011 5.97366 6.07652 5.96858 6.14453 5.96582L6.16797 5.96484L6.19141 5.97168L6.49121 6.07227H6.49219C6.83505 6.18539 7.2065 6.16068 7.53125 5.99414C7.93224 5.737 8.15337 5.32667 8.36328 4.82227L8.36621 4.81445H8.36719C8.42927 4.6844 8.51866 4.60434 8.63965 4.57617C8.68927 4.56465 8.74191 4.56391 8.79199 4.56641Z" fill="#333333" stroke="#333333" stroke-width="0.3"/>
<path d="M16.2842 7.54688C16.4344 7.51684 16.6019 7.50362 16.7715 7.56738L16.873 7.61523L16.9004 7.63086L16.9189 7.65625C16.9769 7.73476 17.0151 7.80577 17.0342 7.88867C17.0519 7.96584 17.051 8.04545 17.0498 8.12793V8.1416L17.0469 8.15625C17.015 8.30827 16.9574 8.38942 16.877 8.48828L16.8545 8.51562L16.8223 8.53027C16.7764 8.55104 16.7457 8.56534 16.7119 8.57715C16.6788 8.5887 16.6437 8.59729 16.5898 8.61133L16.5908 8.6123C16.5495 8.62344 16.5074 8.63404 16.4648 8.64551L16.4629 8.64648C16.4197 8.65737 16.3765 8.66847 16.332 8.67969L16.3311 8.67871L16.2061 8.71289C16.0831 8.7454 15.9595 8.77569 15.8369 8.80664L15.8379 8.80762C15.8032 8.81658 15.7681 8.82573 15.7324 8.83496H15.7314L15.6367 8.85938C15.6097 8.86629 15.5825 8.87276 15.5547 8.87988L15.5498 8.88184C15.3915 8.91626 15.2617 8.92153 15.0996 8.90039L15.0586 8.89551L15.0264 8.86914C14.9563 8.81367 14.8915 8.75861 14.8428 8.68457C14.8175 8.64617 14.7982 8.60543 14.7832 8.56152L14.749 8.41895L14.7441 8.39355L14.749 8.36914C14.765 8.27381 14.7873 8.19767 14.8262 8.12598C14.8636 8.05699 14.9123 7.99889 14.9658 7.9375L14.9873 7.91309L15.0176 7.89941C15.0764 7.87298 15.1136 7.85596 15.1543 7.8418C15.1942 7.82791 15.2367 7.81688 15.3057 7.79883L15.3838 7.77734L15.5537 7.73438L15.8311 7.66113L16.0215 7.6123V7.61133C16.051 7.60351 16.0809 7.59594 16.1113 7.58789L16.1133 7.58691L16.2842 7.54688Z" fill="#333333" stroke="#333333" stroke-width="0.3"/>
</svg>
