<svg width="18" height="18" viewBox="0 0 18 18" fill="none" xmlns="http://www.w3.org/2000/svg">
<path fill-rule="evenodd" clip-rule="evenodd" d="M9 1.63636C13.0668 1.63636 16.3636 4.93318 16.3636 9C16.3636 13.0668 13.0668 16.3636 9 16.3636C4.93318 16.3636 1.63636 13.0668 1.63636 9C1.63636 4.93318 4.93318 1.63636 9 1.63636ZM18 9C18 4.02944 13.9706 0 9 0C4.02944 0 0 4.02944 0 9C0 13.9706 4.02944 18 9 18C13.9706 18 18 13.9706 18 9Z" fill="#333333"/>
<path fill-rule="evenodd" clip-rule="evenodd" d="M8.99973 3.26953C8.54786 3.26953 8.18155 3.63584 8.18155 4.08771V8.9968C8.18155 9.28037 8.32837 9.54371 8.56959 9.69279C8.8108 9.84187 9.11201 9.85542 9.36563 9.72861L12.6384 8.09224C13.0425 7.89016 13.2063 7.3987 13.0043 6.99454C12.8022 6.59037 12.3107 6.42655 11.9066 6.62864L9.81791 7.67296V4.08771C9.81791 3.63584 9.4516 3.26953 8.99973 3.26953Z" fill="#333333"/>
</svg>
