<svg width="20" height="20" viewBox="0 0 20 20" fill="none" xmlns="http://www.w3.org/2000/svg">
<mask id="path-1-outside-1_285_1171" maskUnits="userSpaceOnUse" x="0" y="0" width="20" height="20" fill="black">
<rect fill="white" width="20" height="20"/>
<path d="M9.61362 1.01263C9.65582 1.01239 9.65582 1.01239 9.69888 1.01215C9.72959 1.01216 9.7603 1.01217 9.79194 1.01217C9.84111 1.01198 9.84111 1.01198 9.89128 1.01178C10.0014 1.01139 10.1115 1.01126 10.2216 1.01113C10.3005 1.01091 10.3794 1.01067 10.4582 1.01043C10.7175 1.00969 10.9767 1.00933 11.236 1.00898C11.3253 1.00883 11.4145 1.00869 11.5038 1.00854C11.8753 1.00795 12.2468 1.00744 12.6183 1.00718C12.7147 1.00712 12.811 1.00705 12.9074 1.00698C12.9433 1.00695 12.9433 1.00695 12.9799 1.00693C13.3675 1.00664 13.755 1.00575 14.1425 1.00461C14.5408 1.00345 14.9391 1.00283 15.3374 1.0027C15.5609 1.00262 15.7843 1.00231 16.0078 1.00142C16.2182 1.00061 16.4286 1.00046 16.6389 1.00082C16.7159 1.00084 16.793 1.00062 16.87 1.00013C17.5014 0.996398 17.9921 1.06879 18.4793 1.51296C18.8221 1.88045 18.9987 2.30298 18.9952 2.80172C18.9955 2.85116 18.9955 2.85116 18.9958 2.90159C18.9963 3.01105 18.996 3.1205 18.9958 3.22996C18.996 3.30884 18.9962 3.38772 18.9965 3.4666C18.9971 3.68018 18.9971 3.89375 18.9969 4.10733C18.9968 4.28591 18.997 4.46449 18.9972 4.64307C18.9977 5.08857 18.9976 5.53406 18.9972 5.97956C18.9968 6.36567 18.9973 6.75177 18.9981 7.13788C18.999 7.5352 18.9993 7.93251 18.9991 8.32982C18.999 8.55254 18.9991 8.77525 18.9997 8.99797C19.0002 9.20747 19.0001 9.41696 18.9994 9.62646C18.9993 9.70312 18.9994 9.77979 18.9998 9.85645C19.0025 10.4842 18.9187 11.0021 18.4817 11.4858C18.0941 11.8518 17.6374 12.0127 17.1117 12.0081C17.0655 12.0081 17.0655 12.0081 17.0183 12.0081C16.9174 12.008 16.8166 12.0075 16.7158 12.0069C16.6454 12.0068 16.5751 12.0067 16.5047 12.0066C16.3204 12.0064 16.1361 12.0057 15.9517 12.0049C15.7633 12.0042 15.5749 12.0039 15.3864 12.0035C15.0174 12.0028 14.6483 12.0016 14.2792 12.0001C14.2687 12.027 14.2581 12.054 14.2473 12.0818C14.2047 12.1861 14.1527 12.2802 14.0966 12.378C14.074 12.4174 14.0514 12.4568 14.0282 12.4975C14.0036 12.54 13.9791 12.5826 13.9546 12.6251C13.9291 12.6694 13.9037 12.7137 13.8783 12.758C13.7 13.0683 13.5201 13.3776 13.3394 13.6865C13.1234 14.0559 12.9098 14.4266 12.6962 14.7973C12.5864 14.9878 12.4765 15.1782 12.3666 15.3686C12.3228 15.4446 12.2789 15.5207 12.235 15.5967C12.1473 15.7487 12.0596 15.9008 11.9718 16.0528C11.9501 16.0905 11.9284 16.1282 11.906 16.167C11.8623 16.2427 11.8185 16.3185 11.7748 16.3943C11.64 16.6279 11.5053 16.8616 11.3707 17.0954C11.3044 17.2103 11.238 17.3251 11.1715 17.4399C11.0969 17.569 11.0228 17.6983 10.9495 17.8281C10.6288 18.3922 10.2627 18.7824 9.61689 18.9662C9.47779 18.9968 9.33703 18.9937 9.19512 18.9959C9.16472 18.9972 9.13432 18.9985 9.103 18.9999C8.6484 19.0058 8.25927 18.7924 7.87914 18.5639C7.81937 18.5287 7.7596 18.4935 7.69982 18.4583C7.63919 18.4226 7.57868 18.3866 7.5182 18.3506C7.34082 18.2452 7.16254 18.1414 6.98427 18.0375C6.95019 18.0176 6.91611 17.9977 6.881 17.9772C6.6108 17.8194 6.33932 17.6639 6.06747 17.509C5.72633 17.3146 5.38636 17.1184 5.04744 16.9201C4.67812 16.7042 4.30744 16.4906 3.93672 16.2771C3.82218 16.2111 3.70766 16.1451 3.59316 16.079C3.55552 16.0573 3.51788 16.0356 3.47909 16.0132C3.40356 15.9696 3.32804 15.926 3.25253 15.8824C3.07647 15.7807 2.9003 15.6792 2.72368 15.5785C2.66168 15.5432 2.59972 15.5078 2.53777 15.4723C2.46045 15.4281 2.38305 15.384 2.30556 15.34C2.07654 15.2088 1.85983 15.0668 1.64579 14.9125C1.61466 14.8915 1.58354 14.8705 1.55148 14.8489C1.27205 14.5846 1.03932 14.1718 1.00791 13.7829C1.00555 13.6916 1.00412 13.6003 1.00315 13.5089C1.00213 13.4779 1.00112 13.4469 1.00007 13.415C0.996021 12.9849 1.17538 12.6387 1.38698 12.2742C1.41986 12.2166 1.41986 12.2166 1.4534 12.1578C1.51708 12.0465 1.58128 11.9355 1.64579 11.8247C1.66183 11.7971 1.67787 11.7695 1.6944 11.7411C1.76345 11.6228 1.83308 11.5049 1.90295 11.3871C2.01988 11.1896 2.13433 10.9906 2.24894 10.7917C2.28253 10.7335 2.28253 10.7335 2.31679 10.674C2.36269 10.5943 2.40859 10.5146 2.45448 10.435C2.56498 10.2431 2.67565 10.0514 2.7863 9.85969C2.91838 9.63083 3.05042 9.40195 3.18233 9.17299C3.39367 8.80625 3.6056 8.43989 3.81934 8.07455C3.98806 7.78615 4.15477 7.49668 4.32025 7.20642C4.35637 7.14309 4.39254 7.0798 4.42873 7.01652C4.44037 6.99616 4.45202 6.9758 4.46401 6.95482C4.47547 6.9348 4.48692 6.91477 4.49872 6.89414C4.57698 6.7573 4.65486 6.62026 4.7323 6.48295C5.04146 5.93897 5.3842 5.5494 6.00126 5.35751C6.64106 5.20429 7.14461 5.38085 7.69627 5.69085C7.72535 5.7071 7.75443 5.72335 7.78439 5.74009C7.85549 5.77985 7.92655 5.81967 7.99757 5.85958C7.99722 5.799 7.99722 5.799 7.99687 5.73719C7.99473 5.35521 7.99315 4.97323 7.99212 4.59124C7.99157 4.39489 7.99083 4.19855 7.98963 4.00221C7.98848 3.81246 7.98786 3.62272 7.98759 3.43297C7.98739 3.36084 7.98701 3.28872 7.98644 3.2166C7.98161 2.58058 8.03441 2.0256 8.49011 1.53805C8.7842 1.2627 9.19942 1.0137 9.61362 1.01263ZM9.01526 2.07C8.77549 2.34338 8.71915 2.64512 8.7131 2.99991C8.71213 3.03533 8.71116 3.07074 8.71015 3.10723C8.7072 3.22344 8.70511 3.33963 8.70327 3.45586C8.70262 3.49578 8.70197 3.5357 8.7013 3.57683C8.69809 3.78791 8.69569 3.99898 8.69381 4.21007C8.69209 4.38429 8.68866 4.55834 8.68373 4.7325C8.67777 4.94356 8.67475 5.15447 8.67382 5.36562C8.67299 5.44575 8.67114 5.52588 8.66823 5.60596C8.63831 6.01838 8.63831 6.01838 8.79227 6.38277C8.93361 6.49705 9.08873 6.56993 9.25705 6.63602C9.36758 6.68169 9.46575 6.74173 9.56798 6.80368C9.68017 6.86826 9.79243 6.93272 9.90474 6.99708C10.0806 7.09806 10.2558 7.19958 10.4284 7.30589C10.4557 7.32256 10.483 7.33922 10.5112 7.3564C10.5607 7.3868 10.61 7.41761 10.6589 7.44892C10.755 7.50765 10.8196 7.54476 10.9339 7.53958C11.0153 7.50883 11.0929 7.47428 11.1713 7.43637C11.4418 7.32617 11.7552 7.31406 12.0289 7.42322C12.3432 7.59003 12.5186 7.80686 12.6298 8.14034C12.6272 8.18975 12.6272 8.18975 12.6245 8.24015C12.6199 8.37083 12.6265 8.4711 12.6649 8.59649C12.8017 8.72905 12.9625 8.80613 13.1321 8.88817C13.1975 8.92176 13.2627 8.95584 13.3279 8.98993C13.371 9.01242 13.4142 9.03474 13.4575 9.05688C13.9647 9.31844 14.3498 9.63021 14.5599 10.1755C14.6525 10.4972 14.6847 10.7823 14.6471 11.1134C14.6439 11.1416 14.6407 11.1697 14.6375 11.1987C14.635 11.22 14.6326 11.2413 14.6301 11.2632C14.9809 11.2665 15.3318 11.269 15.6826 11.2705C15.8455 11.2712 16.0085 11.2722 16.1714 11.2738C16.3288 11.2754 16.4863 11.2762 16.6438 11.2766C16.7036 11.2768 16.7635 11.2773 16.8233 11.2781C17.2448 11.2832 17.6443 11.2569 17.9639 10.9474C18.2289 10.617 18.2853 10.2842 18.2844 9.87014C18.2845 9.84025 18.2846 9.81037 18.2847 9.77958C18.2849 9.67989 18.2849 9.58021 18.2848 9.48053C18.285 9.40887 18.2851 9.33721 18.2852 9.26555C18.2855 9.07118 18.2856 8.87681 18.2856 8.68244C18.2856 8.5609 18.2857 8.43936 18.2858 8.31782C18.2861 7.89353 18.2863 7.46923 18.2863 7.04493C18.2862 6.64991 18.2866 6.25489 18.2872 5.85986C18.2876 5.52032 18.2878 5.18078 18.2878 4.84124C18.2878 4.63862 18.2879 4.43601 18.2882 4.23339C18.2886 4.04273 18.2886 3.85207 18.2883 3.66141C18.2883 3.59164 18.2884 3.52186 18.2886 3.45209C18.2996 2.69175 18.2996 2.69175 17.9417 2.04135C17.6275 1.74983 17.2572 1.71361 16.8469 1.71442C16.817 1.71434 16.7871 1.71426 16.7562 1.71418C16.6565 1.71396 16.5569 1.71398 16.4572 1.71401C16.3855 1.71391 16.3137 1.71379 16.242 1.71366C16.0476 1.71335 15.8532 1.71326 15.6588 1.71324C15.5373 1.71322 15.4158 1.71314 15.2942 1.71305C14.8699 1.71272 14.4456 1.71258 14.0213 1.71261C13.6262 1.71263 13.2311 1.71226 12.836 1.71171C12.4964 1.71125 12.1568 1.71106 11.8172 1.71108C11.6145 1.71109 11.4119 1.71099 11.2092 1.71062C11.0186 1.71028 10.828 1.71028 10.6373 1.71053C10.5675 1.71057 10.4977 1.71049 10.428 1.71027C9.66401 1.70176 9.66401 1.70176 9.01526 2.07ZM5.71655 6.35082C5.5233 6.5876 5.37798 6.8578 5.23183 7.12496C5.18847 7.2033 5.14506 7.28161 5.1016 7.35989C5.0702 7.41649 5.0702 7.41649 5.03817 7.47424C4.96278 7.60897 4.88519 7.74226 4.80633 7.87498C4.66119 8.11955 4.51844 8.36543 4.37644 8.61184C4.35405 8.6507 4.33166 8.68955 4.30859 8.72958C4.26269 8.80925 4.2168 8.88893 4.17091 8.96861C4.0604 9.16043 3.94974 9.35215 3.83908 9.54389C3.79522 9.61991 3.75135 9.69594 3.70749 9.77196C3.61975 9.92402 3.53202 10.0761 3.44429 10.2281C3.42257 10.2658 3.40086 10.3034 3.37848 10.3422C3.33465 10.4181 3.29081 10.4941 3.24697 10.5701C3.13681 10.761 3.02669 10.9519 2.91667 11.1429C2.89475 11.1809 2.87284 11.2189 2.85026 11.2581C2.80635 11.3343 2.76245 11.4105 2.71857 11.4867C2.58884 11.7117 2.45773 11.9359 2.32567 12.1596C2.24459 12.2974 2.16446 12.4358 2.08484 12.5746C2.05126 12.6329 2.01744 12.6912 1.9833 12.7493C1.77163 13.1119 1.66688 13.4237 1.77478 13.8477C1.9574 14.3175 2.40769 14.5412 2.82359 14.7721C3.10738 14.931 3.3896 15.0923 3.6702 15.2568C3.97686 15.4364 4.28477 15.6138 4.59358 15.7897C4.93473 15.9841 5.27469 16.1803 5.61362 16.3786C5.98293 16.5945 6.35361 16.8081 6.72433 17.0216C6.87692 17.1095 7.02946 17.1975 7.18199 17.2855C7.25741 17.329 7.33284 17.3725 7.40829 17.416C7.58575 17.5182 7.7631 17.6207 7.94009 17.7238C8.02326 17.7722 8.1065 17.8205 8.18974 17.8688C8.24813 17.9028 8.30644 17.9369 8.36475 17.971C8.75605 18.198 9.07685 18.3334 9.54111 18.2204C10.0442 18.0329 10.2367 17.5624 10.4892 17.1209C10.5238 17.0606 10.5583 17.0004 10.5929 16.9402C10.6285 16.8782 10.664 16.8163 10.6996 16.7543C10.8104 16.5612 10.9218 16.3685 11.0331 16.1757C11.077 16.0996 11.1208 16.0236 11.1647 15.9476C11.2524 15.7955 11.3402 15.6435 11.4279 15.4914C11.4496 15.4538 11.4713 15.4161 11.4937 15.3774C11.5375 15.3014 11.5814 15.2254 11.6252 15.1495C11.7354 14.9586 11.8455 14.7676 11.9555 14.5766C12.1868 14.1754 12.419 13.7747 12.6529 13.375C12.7628 13.1868 12.8719 12.9981 12.9799 12.8088C12.9917 12.7881 13.0035 12.7674 13.0157 12.7461C13.0753 12.6416 13.1347 12.537 13.1941 12.4324C13.3054 12.2367 13.418 12.0422 13.5351 11.85C13.556 11.8156 13.5768 11.7812 13.5983 11.7458C13.6368 11.6825 13.6758 11.6195 13.7152 11.5567C13.8908 11.2681 13.9982 10.9669 13.9528 10.6259C13.8652 10.2708 13.6905 10.0355 13.388 9.84061C13.2903 9.7819 13.1917 9.72515 13.0926 9.66889C13.0558 9.64774 13.0191 9.62659 12.9812 9.6048C12.9034 9.56009 12.8256 9.51548 12.7477 9.47097C12.5953 9.38376 12.4432 9.29584 12.2911 9.20793C12.1384 9.11966 11.9855 9.03162 11.8326 8.94356C11.6421 8.8338 11.4516 8.72392 11.2612 8.61404C11.1852 8.57018 11.1091 8.52632 11.0331 8.48245C8.75207 7.16663 8.75207 7.16663 8.63786 7.10074C8.56235 7.05719 8.48683 7.01364 8.4113 6.9701C8.23426 6.86803 8.05727 6.76586 7.88051 6.66331C7.81801 6.62706 7.7555 6.59084 7.69298 6.55463C7.61462 6.50924 7.5363 6.46378 7.45802 6.41825C6.861 6.07269 6.30232 5.84698 5.71655 6.35082Z"/>
</mask>
<path d="M9.61362 1.01263C9.65582 1.01239 9.65582 1.01239 9.69888 1.01215C9.72959 1.01216 9.7603 1.01217 9.79194 1.01217C9.84111 1.01198 9.84111 1.01198 9.89128 1.01178C10.0014 1.01139 10.1115 1.01126 10.2216 1.01113C10.3005 1.01091 10.3794 1.01067 10.4582 1.01043C10.7175 1.00969 10.9767 1.00933 11.236 1.00898C11.3253 1.00883 11.4145 1.00869 11.5038 1.00854C11.8753 1.00795 12.2468 1.00744 12.6183 1.00718C12.7147 1.00712 12.811 1.00705 12.9074 1.00698C12.9433 1.00695 12.9433 1.00695 12.9799 1.00693C13.3675 1.00664 13.755 1.00575 14.1425 1.00461C14.5408 1.00345 14.9391 1.00283 15.3374 1.0027C15.5609 1.00262 15.7843 1.00231 16.0078 1.00142C16.2182 1.00061 16.4286 1.00046 16.6389 1.00082C16.7159 1.00084 16.793 1.00062 16.87 1.00013C17.5014 0.996398 17.9921 1.06879 18.4793 1.51296C18.8221 1.88045 18.9987 2.30298 18.9952 2.80172C18.9955 2.85116 18.9955 2.85116 18.9958 2.90159C18.9963 3.01105 18.996 3.1205 18.9958 3.22996C18.996 3.30884 18.9962 3.38772 18.9965 3.4666C18.9971 3.68018 18.9971 3.89375 18.9969 4.10733C18.9968 4.28591 18.997 4.46449 18.9972 4.64307C18.9977 5.08857 18.9976 5.53406 18.9972 5.97956C18.9968 6.36567 18.9973 6.75177 18.9981 7.13788C18.999 7.5352 18.9993 7.93251 18.9991 8.32982C18.999 8.55254 18.9991 8.77525 18.9997 8.99797C19.0002 9.20747 19.0001 9.41696 18.9994 9.62646C18.9993 9.70312 18.9994 9.77979 18.9998 9.85645C19.0025 10.4842 18.9187 11.0021 18.4817 11.4858C18.0941 11.8518 17.6374 12.0127 17.1117 12.0081C17.0655 12.0081 17.0655 12.0081 17.0183 12.0081C16.9174 12.008 16.8166 12.0075 16.7158 12.0069C16.6454 12.0068 16.5751 12.0067 16.5047 12.0066C16.3204 12.0064 16.1361 12.0057 15.9517 12.0049C15.7633 12.0042 15.5749 12.0039 15.3864 12.0035C15.0174 12.0028 14.6483 12.0016 14.2792 12.0001C14.2687 12.027 14.2581 12.054 14.2473 12.0818C14.2047 12.1861 14.1527 12.2802 14.0966 12.378C14.074 12.4174 14.0514 12.4568 14.0282 12.4975C14.0036 12.54 13.9791 12.5826 13.9546 12.6251C13.9291 12.6694 13.9037 12.7137 13.8783 12.758C13.7 13.0683 13.5201 13.3776 13.3394 13.6865C13.1234 14.0559 12.9098 14.4266 12.6962 14.7973C12.5864 14.9878 12.4765 15.1782 12.3666 15.3686C12.3228 15.4446 12.2789 15.5207 12.235 15.5967C12.1473 15.7487 12.0596 15.9008 11.9718 16.0528C11.9501 16.0905 11.9284 16.1282 11.906 16.167C11.8623 16.2427 11.8185 16.3185 11.7748 16.3943C11.64 16.6279 11.5053 16.8616 11.3707 17.0954C11.3044 17.2103 11.238 17.3251 11.1715 17.4399C11.0969 17.569 11.0228 17.6983 10.9495 17.8281C10.6288 18.3922 10.2627 18.7824 9.61689 18.9662C9.47779 18.9968 9.33703 18.9937 9.19512 18.9959C9.16472 18.9972 9.13432 18.9985 9.103 18.9999C8.6484 19.0058 8.25927 18.7924 7.87914 18.5639C7.81937 18.5287 7.7596 18.4935 7.69982 18.4583C7.63919 18.4226 7.57868 18.3866 7.5182 18.3506C7.34082 18.2452 7.16254 18.1414 6.98427 18.0375C6.95019 18.0176 6.91611 17.9977 6.881 17.9772C6.6108 17.8194 6.33932 17.6639 6.06747 17.509C5.72633 17.3146 5.38636 17.1184 5.04744 16.9201C4.67812 16.7042 4.30744 16.4906 3.93672 16.2771C3.82218 16.2111 3.70766 16.1451 3.59316 16.079C3.55552 16.0573 3.51788 16.0356 3.47909 16.0132C3.40356 15.9696 3.32804 15.926 3.25253 15.8824C3.07647 15.7807 2.9003 15.6792 2.72368 15.5785C2.66168 15.5432 2.59972 15.5078 2.53777 15.4723C2.46045 15.4281 2.38305 15.384 2.30556 15.34C2.07654 15.2088 1.85983 15.0668 1.64579 14.9125C1.61466 14.8915 1.58354 14.8705 1.55148 14.8489C1.27205 14.5846 1.03932 14.1718 1.00791 13.7829C1.00555 13.6916 1.00412 13.6003 1.00315 13.5089C1.00213 13.4779 1.00112 13.4469 1.00007 13.415C0.996021 12.9849 1.17538 12.6387 1.38698 12.2742C1.41986 12.2166 1.41986 12.2166 1.4534 12.1578C1.51708 12.0465 1.58128 11.9355 1.64579 11.8247C1.66183 11.7971 1.67787 11.7695 1.6944 11.7411C1.76345 11.6228 1.83308 11.5049 1.90295 11.3871C2.01988 11.1896 2.13433 10.9906 2.24894 10.7917C2.28253 10.7335 2.28253 10.7335 2.31679 10.674C2.36269 10.5943 2.40859 10.5146 2.45448 10.435C2.56498 10.2431 2.67565 10.0514 2.7863 9.85969C2.91838 9.63083 3.05042 9.40195 3.18233 9.17299C3.39367 8.80625 3.6056 8.43989 3.81934 8.07455C3.98806 7.78615 4.15477 7.49668 4.32025 7.20642C4.35637 7.14309 4.39254 7.0798 4.42873 7.01652C4.44037 6.99616 4.45202 6.9758 4.46401 6.95482C4.47547 6.9348 4.48692 6.91477 4.49872 6.89414C4.57698 6.7573 4.65486 6.62026 4.7323 6.48295C5.04146 5.93897 5.3842 5.5494 6.00126 5.35751C6.64106 5.20429 7.14461 5.38085 7.69627 5.69085C7.72535 5.7071 7.75443 5.72335 7.78439 5.74009C7.85549 5.77985 7.92655 5.81967 7.99757 5.85958C7.99722 5.799 7.99722 5.799 7.99687 5.73719C7.99473 5.35521 7.99315 4.97323 7.99212 4.59124C7.99157 4.39489 7.99083 4.19855 7.98963 4.00221C7.98848 3.81246 7.98786 3.62272 7.98759 3.43297C7.98739 3.36084 7.98701 3.28872 7.98644 3.2166C7.98161 2.58058 8.03441 2.0256 8.49011 1.53805C8.7842 1.2627 9.19942 1.0137 9.61362 1.01263ZM9.01526 2.07C8.77549 2.34338 8.71915 2.64512 8.7131 2.99991C8.71213 3.03533 8.71116 3.07074 8.71015 3.10723C8.7072 3.22344 8.70511 3.33963 8.70327 3.45586C8.70262 3.49578 8.70197 3.5357 8.7013 3.57683C8.69809 3.78791 8.69569 3.99898 8.69381 4.21007C8.69209 4.38429 8.68866 4.55834 8.68373 4.7325C8.67777 4.94356 8.67475 5.15447 8.67382 5.36562C8.67299 5.44575 8.67114 5.52588 8.66823 5.60596C8.63831 6.01838 8.63831 6.01838 8.79227 6.38277C8.93361 6.49705 9.08873 6.56993 9.25705 6.63602C9.36758 6.68169 9.46575 6.74173 9.56798 6.80368C9.68017 6.86826 9.79243 6.93272 9.90474 6.99708C10.0806 7.09806 10.2558 7.19958 10.4284 7.30589C10.4557 7.32256 10.483 7.33922 10.5112 7.3564C10.5607 7.3868 10.61 7.41761 10.6589 7.44892C10.755 7.50765 10.8196 7.54476 10.9339 7.53958C11.0153 7.50883 11.0929 7.47428 11.1713 7.43637C11.4418 7.32617 11.7552 7.31406 12.0289 7.42322C12.3432 7.59003 12.5186 7.80686 12.6298 8.14034C12.6272 8.18975 12.6272 8.18975 12.6245 8.24015C12.6199 8.37083 12.6265 8.4711 12.6649 8.59649C12.8017 8.72905 12.9625 8.80613 13.1321 8.88817C13.1975 8.92176 13.2627 8.95584 13.3279 8.98993C13.371 9.01242 13.4142 9.03474 13.4575 9.05688C13.9647 9.31844 14.3498 9.63021 14.5599 10.1755C14.6525 10.4972 14.6847 10.7823 14.6471 11.1134C14.6439 11.1416 14.6407 11.1697 14.6375 11.1987C14.635 11.22 14.6326 11.2413 14.6301 11.2632C14.9809 11.2665 15.3318 11.269 15.6826 11.2705C15.8455 11.2712 16.0085 11.2722 16.1714 11.2738C16.3288 11.2754 16.4863 11.2762 16.6438 11.2766C16.7036 11.2768 16.7635 11.2773 16.8233 11.2781C17.2448 11.2832 17.6443 11.2569 17.9639 10.9474C18.2289 10.617 18.2853 10.2842 18.2844 9.87014C18.2845 9.84025 18.2846 9.81037 18.2847 9.77958C18.2849 9.67989 18.2849 9.58021 18.2848 9.48053C18.285 9.40887 18.2851 9.33721 18.2852 9.26555C18.2855 9.07118 18.2856 8.87681 18.2856 8.68244C18.2856 8.5609 18.2857 8.43936 18.2858 8.31782C18.2861 7.89353 18.2863 7.46923 18.2863 7.04493C18.2862 6.64991 18.2866 6.25489 18.2872 5.85986C18.2876 5.52032 18.2878 5.18078 18.2878 4.84124C18.2878 4.63862 18.2879 4.43601 18.2882 4.23339C18.2886 4.04273 18.2886 3.85207 18.2883 3.66141C18.2883 3.59164 18.2884 3.52186 18.2886 3.45209C18.2996 2.69175 18.2996 2.69175 17.9417 2.04135C17.6275 1.74983 17.2572 1.71361 16.8469 1.71442C16.817 1.71434 16.7871 1.71426 16.7562 1.71418C16.6565 1.71396 16.5569 1.71398 16.4572 1.71401C16.3855 1.71391 16.3137 1.71379 16.242 1.71366C16.0476 1.71335 15.8532 1.71326 15.6588 1.71324C15.5373 1.71322 15.4158 1.71314 15.2942 1.71305C14.8699 1.71272 14.4456 1.71258 14.0213 1.71261C13.6262 1.71263 13.2311 1.71226 12.836 1.71171C12.4964 1.71125 12.1568 1.71106 11.8172 1.71108C11.6145 1.71109 11.4119 1.71099 11.2092 1.71062C11.0186 1.71028 10.828 1.71028 10.6373 1.71053C10.5675 1.71057 10.4977 1.71049 10.428 1.71027C9.66401 1.70176 9.66401 1.70176 9.01526 2.07ZM5.71655 6.35082C5.5233 6.5876 5.37798 6.8578 5.23183 7.12496C5.18847 7.2033 5.14506 7.28161 5.1016 7.35989C5.0702 7.41649 5.0702 7.41649 5.03817 7.47424C4.96278 7.60897 4.88519 7.74226 4.80633 7.87498C4.66119 8.11955 4.51844 8.36543 4.37644 8.61184C4.35405 8.6507 4.33166 8.68955 4.30859 8.72958C4.26269 8.80925 4.2168 8.88893 4.17091 8.96861C4.0604 9.16043 3.94974 9.35215 3.83908 9.54389C3.79522 9.61991 3.75135 9.69594 3.70749 9.77196C3.61975 9.92402 3.53202 10.0761 3.44429 10.2281C3.42257 10.2658 3.40086 10.3034 3.37848 10.3422C3.33465 10.4181 3.29081 10.4941 3.24697 10.5701C3.13681 10.761 3.02669 10.9519 2.91667 11.1429C2.89475 11.1809 2.87284 11.2189 2.85026 11.2581C2.80635 11.3343 2.76245 11.4105 2.71857 11.4867C2.58884 11.7117 2.45773 11.9359 2.32567 12.1596C2.24459 12.2974 2.16446 12.4358 2.08484 12.5746C2.05126 12.6329 2.01744 12.6912 1.9833 12.7493C1.77163 13.1119 1.66688 13.4237 1.77478 13.8477C1.9574 14.3175 2.40769 14.5412 2.82359 14.7721C3.10738 14.931 3.3896 15.0923 3.6702 15.2568C3.97686 15.4364 4.28477 15.6138 4.59358 15.7897C4.93473 15.9841 5.27469 16.1803 5.61362 16.3786C5.98293 16.5945 6.35361 16.8081 6.72433 17.0216C6.87692 17.1095 7.02946 17.1975 7.18199 17.2855C7.25741 17.329 7.33284 17.3725 7.40829 17.416C7.58575 17.5182 7.7631 17.6207 7.94009 17.7238C8.02326 17.7722 8.1065 17.8205 8.18974 17.8688C8.24813 17.9028 8.30644 17.9369 8.36475 17.971C8.75605 18.198 9.07685 18.3334 9.54111 18.2204C10.0442 18.0329 10.2367 17.5624 10.4892 17.1209C10.5238 17.0606 10.5583 17.0004 10.5929 16.9402C10.6285 16.8782 10.664 16.8163 10.6996 16.7543C10.8104 16.5612 10.9218 16.3685 11.0331 16.1757C11.077 16.0996 11.1208 16.0236 11.1647 15.9476C11.2524 15.7955 11.3402 15.6435 11.4279 15.4914C11.4496 15.4538 11.4713 15.4161 11.4937 15.3774C11.5375 15.3014 11.5814 15.2254 11.6252 15.1495C11.7354 14.9586 11.8455 14.7676 11.9555 14.5766C12.1868 14.1754 12.419 13.7747 12.6529 13.375C12.7628 13.1868 12.8719 12.9981 12.9799 12.8088C12.9917 12.7881 13.0035 12.7674 13.0157 12.7461C13.0753 12.6416 13.1347 12.537 13.1941 12.4324C13.3054 12.2367 13.418 12.0422 13.5351 11.85C13.556 11.8156 13.5768 11.7812 13.5983 11.7458C13.6368 11.6825 13.6758 11.6195 13.7152 11.5567C13.8908 11.2681 13.9982 10.9669 13.9528 10.6259C13.8652 10.2708 13.6905 10.0355 13.388 9.84061C13.2903 9.7819 13.1917 9.72515 13.0926 9.66889C13.0558 9.64774 13.0191 9.62659 12.9812 9.6048C12.9034 9.56009 12.8256 9.51548 12.7477 9.47097C12.5953 9.38376 12.4432 9.29584 12.2911 9.20793C12.1384 9.11966 11.9855 9.03162 11.8326 8.94356C11.6421 8.8338 11.4516 8.72392 11.2612 8.61404C11.1852 8.57018 11.1091 8.52632 11.0331 8.48245C8.75207 7.16663 8.75207 7.16663 8.63786 7.10074C8.56235 7.05719 8.48683 7.01364 8.4113 6.9701C8.23426 6.86803 8.05727 6.76586 7.88051 6.66331C7.81801 6.62706 7.7555 6.59084 7.69298 6.55463C7.61462 6.50924 7.5363 6.46378 7.45802 6.41825C6.861 6.07269 6.30232 5.84698 5.71655 6.35082Z" fill="#333333"/>
<path d="M9.61362 1.01263C9.65582 1.01239 9.65582 1.01239 9.69888 1.01215C9.72959 1.01216 9.7603 1.01217 9.79194 1.01217C9.84111 1.01198 9.84111 1.01198 9.89128 1.01178C10.0014 1.01139 10.1115 1.01126 10.2216 1.01113C10.3005 1.01091 10.3794 1.01067 10.4582 1.01043C10.7175 1.00969 10.9767 1.00933 11.236 1.00898C11.3253 1.00883 11.4145 1.00869 11.5038 1.00854C11.8753 1.00795 12.2468 1.00744 12.6183 1.00718C12.7147 1.00712 12.811 1.00705 12.9074 1.00698C12.9433 1.00695 12.9433 1.00695 12.9799 1.00693C13.3675 1.00664 13.755 1.00575 14.1425 1.00461C14.5408 1.00345 14.9391 1.00283 15.3374 1.0027C15.5609 1.00262 15.7843 1.00231 16.0078 1.00142C16.2182 1.00061 16.4286 1.00046 16.6389 1.00082C16.7159 1.00084 16.793 1.00062 16.87 1.00013C17.5014 0.996398 17.9921 1.06879 18.4793 1.51296C18.8221 1.88045 18.9987 2.30298 18.9952 2.80172C18.9955 2.85116 18.9955 2.85116 18.9958 2.90159C18.9963 3.01105 18.996 3.1205 18.9958 3.22996C18.996 3.30884 18.9962 3.38772 18.9965 3.4666C18.9971 3.68018 18.9971 3.89375 18.9969 4.10733C18.9968 4.28591 18.997 4.46449 18.9972 4.64307C18.9977 5.08857 18.9976 5.53406 18.9972 5.97956C18.9968 6.36567 18.9973 6.75177 18.9981 7.13788C18.999 7.5352 18.9993 7.93251 18.9991 8.32982C18.999 8.55254 18.9991 8.77525 18.9997 8.99797C19.0002 9.20747 19.0001 9.41696 18.9994 9.62646C18.9993 9.70312 18.9994 9.77979 18.9998 9.85645C19.0025 10.4842 18.9187 11.0021 18.4817 11.4858C18.0941 11.8518 17.6374 12.0127 17.1117 12.0081C17.0655 12.0081 17.0655 12.0081 17.0183 12.0081C16.9174 12.008 16.8166 12.0075 16.7158 12.0069C16.6454 12.0068 16.5751 12.0067 16.5047 12.0066C16.3204 12.0064 16.1361 12.0057 15.9517 12.0049C15.7633 12.0042 15.5749 12.0039 15.3864 12.0035C15.0174 12.0028 14.6483 12.0016 14.2792 12.0001C14.2687 12.027 14.2581 12.054 14.2473 12.0818C14.2047 12.1861 14.1527 12.2802 14.0966 12.378C14.074 12.4174 14.0514 12.4568 14.0282 12.4975C14.0036 12.54 13.9791 12.5826 13.9546 12.6251C13.9291 12.6694 13.9037 12.7137 13.8783 12.758C13.7 13.0683 13.5201 13.3776 13.3394 13.6865C13.1234 14.0559 12.9098 14.4266 12.6962 14.7973C12.5864 14.9878 12.4765 15.1782 12.3666 15.3686C12.3228 15.4446 12.2789 15.5207 12.235 15.5967C12.1473 15.7487 12.0596 15.9008 11.9718 16.0528C11.9501 16.0905 11.9284 16.1282 11.906 16.167C11.8623 16.2427 11.8185 16.3185 11.7748 16.3943C11.64 16.6279 11.5053 16.8616 11.3707 17.0954C11.3044 17.2103 11.238 17.3251 11.1715 17.4399C11.0969 17.569 11.0228 17.6983 10.9495 17.8281C10.6288 18.3922 10.2627 18.7824 9.61689 18.9662C9.47779 18.9968 9.33703 18.9937 9.19512 18.9959C9.16472 18.9972 9.13432 18.9985 9.103 18.9999C8.6484 19.0058 8.25927 18.7924 7.87914 18.5639C7.81937 18.5287 7.7596 18.4935 7.69982 18.4583C7.63919 18.4226 7.57868 18.3866 7.5182 18.3506C7.34082 18.2452 7.16254 18.1414 6.98427 18.0375C6.95019 18.0176 6.91611 17.9977 6.881 17.9772C6.6108 17.8194 6.33932 17.6639 6.06747 17.509C5.72633 17.3146 5.38636 17.1184 5.04744 16.9201C4.67812 16.7042 4.30744 16.4906 3.93672 16.2771C3.82218 16.2111 3.70766 16.1451 3.59316 16.079C3.55552 16.0573 3.51788 16.0356 3.47909 16.0132C3.40356 15.9696 3.32804 15.926 3.25253 15.8824C3.07647 15.7807 2.9003 15.6792 2.72368 15.5785C2.66168 15.5432 2.59972 15.5078 2.53777 15.4723C2.46045 15.4281 2.38305 15.384 2.30556 15.34C2.07654 15.2088 1.85983 15.0668 1.64579 14.9125C1.61466 14.8915 1.58354 14.8705 1.55148 14.8489C1.27205 14.5846 1.03932 14.1718 1.00791 13.7829C1.00555 13.6916 1.00412 13.6003 1.00315 13.5089C1.00213 13.4779 1.00112 13.4469 1.00007 13.415C0.996021 12.9849 1.17538 12.6387 1.38698 12.2742C1.41986 12.2166 1.41986 12.2166 1.4534 12.1578C1.51708 12.0465 1.58128 11.9355 1.64579 11.8247C1.66183 11.7971 1.67787 11.7695 1.6944 11.7411C1.76345 11.6228 1.83308 11.5049 1.90295 11.3871C2.01988 11.1896 2.13433 10.9906 2.24894 10.7917C2.28253 10.7335 2.28253 10.7335 2.31679 10.674C2.36269 10.5943 2.40859 10.5146 2.45448 10.435C2.56498 10.2431 2.67565 10.0514 2.7863 9.85969C2.91838 9.63083 3.05042 9.40195 3.18233 9.17299C3.39367 8.80625 3.6056 8.43989 3.81934 8.07455C3.98806 7.78615 4.15477 7.49668 4.32025 7.20642C4.35637 7.14309 4.39254 7.0798 4.42873 7.01652C4.44037 6.99616 4.45202 6.9758 4.46401 6.95482C4.47547 6.9348 4.48692 6.91477 4.49872 6.89414C4.57698 6.7573 4.65486 6.62026 4.7323 6.48295C5.04146 5.93897 5.3842 5.5494 6.00126 5.35751C6.64106 5.20429 7.14461 5.38085 7.69627 5.69085C7.72535 5.7071 7.75443 5.72335 7.78439 5.74009C7.85549 5.77985 7.92655 5.81967 7.99757 5.85958C7.99722 5.799 7.99722 5.799 7.99687 5.73719C7.99473 5.35521 7.99315 4.97323 7.99212 4.59124C7.99157 4.39489 7.99083 4.19855 7.98963 4.00221C7.98848 3.81246 7.98786 3.62272 7.98759 3.43297C7.98739 3.36084 7.98701 3.28872 7.98644 3.2166C7.98161 2.58058 8.03441 2.0256 8.49011 1.53805C8.7842 1.2627 9.19942 1.0137 9.61362 1.01263ZM9.01526 2.07C8.77549 2.34338 8.71915 2.64512 8.7131 2.99991C8.71213 3.03533 8.71116 3.07074 8.71015 3.10723C8.7072 3.22344 8.70511 3.33963 8.70327 3.45586C8.70262 3.49578 8.70197 3.5357 8.7013 3.57683C8.69809 3.78791 8.69569 3.99898 8.69381 4.21007C8.69209 4.38429 8.68866 4.55834 8.68373 4.7325C8.67777 4.94356 8.67475 5.15447 8.67382 5.36562C8.67299 5.44575 8.67114 5.52588 8.66823 5.60596C8.63831 6.01838 8.63831 6.01838 8.79227 6.38277C8.93361 6.49705 9.08873 6.56993 9.25705 6.63602C9.36758 6.68169 9.46575 6.74173 9.56798 6.80368C9.68017 6.86826 9.79243 6.93272 9.90474 6.99708C10.0806 7.09806 10.2558 7.19958 10.4284 7.30589C10.4557 7.32256 10.483 7.33922 10.5112 7.3564C10.5607 7.3868 10.61 7.41761 10.6589 7.44892C10.755 7.50765 10.8196 7.54476 10.9339 7.53958C11.0153 7.50883 11.0929 7.47428 11.1713 7.43637C11.4418 7.32617 11.7552 7.31406 12.0289 7.42322C12.3432 7.59003 12.5186 7.80686 12.6298 8.14034C12.6272 8.18975 12.6272 8.18975 12.6245 8.24015C12.6199 8.37083 12.6265 8.4711 12.6649 8.59649C12.8017 8.72905 12.9625 8.80613 13.1321 8.88817C13.1975 8.92176 13.2627 8.95584 13.3279 8.98993C13.371 9.01242 13.4142 9.03474 13.4575 9.05688C13.9647 9.31844 14.3498 9.63021 14.5599 10.1755C14.6525 10.4972 14.6847 10.7823 14.6471 11.1134C14.6439 11.1416 14.6407 11.1697 14.6375 11.1987C14.635 11.22 14.6326 11.2413 14.6301 11.2632C14.9809 11.2665 15.3318 11.269 15.6826 11.2705C15.8455 11.2712 16.0085 11.2722 16.1714 11.2738C16.3288 11.2754 16.4863 11.2762 16.6438 11.2766C16.7036 11.2768 16.7635 11.2773 16.8233 11.2781C17.2448 11.2832 17.6443 11.2569 17.9639 10.9474C18.2289 10.617 18.2853 10.2842 18.2844 9.87014C18.2845 9.84025 18.2846 9.81037 18.2847 9.77958C18.2849 9.67989 18.2849 9.58021 18.2848 9.48053C18.285 9.40887 18.2851 9.33721 18.2852 9.26555C18.2855 9.07118 18.2856 8.87681 18.2856 8.68244C18.2856 8.5609 18.2857 8.43936 18.2858 8.31782C18.2861 7.89353 18.2863 7.46923 18.2863 7.04493C18.2862 6.64991 18.2866 6.25489 18.2872 5.85986C18.2876 5.52032 18.2878 5.18078 18.2878 4.84124C18.2878 4.63862 18.2879 4.43601 18.2882 4.23339C18.2886 4.04273 18.2886 3.85207 18.2883 3.66141C18.2883 3.59164 18.2884 3.52186 18.2886 3.45209C18.2996 2.69175 18.2996 2.69175 17.9417 2.04135C17.6275 1.74983 17.2572 1.71361 16.8469 1.71442C16.817 1.71434 16.7871 1.71426 16.7562 1.71418C16.6565 1.71396 16.5569 1.71398 16.4572 1.71401C16.3855 1.71391 16.3137 1.71379 16.242 1.71366C16.0476 1.71335 15.8532 1.71326 15.6588 1.71324C15.5373 1.71322 15.4158 1.71314 15.2942 1.71305C14.8699 1.71272 14.4456 1.71258 14.0213 1.71261C13.6262 1.71263 13.2311 1.71226 12.836 1.71171C12.4964 1.71125 12.1568 1.71106 11.8172 1.71108C11.6145 1.71109 11.4119 1.71099 11.2092 1.71062C11.0186 1.71028 10.828 1.71028 10.6373 1.71053C10.5675 1.71057 10.4977 1.71049 10.428 1.71027C9.66401 1.70176 9.66401 1.70176 9.01526 2.07ZM5.71655 6.35082C5.5233 6.5876 5.37798 6.8578 5.23183 7.12496C5.18847 7.2033 5.14506 7.28161 5.1016 7.35989C5.0702 7.41649 5.0702 7.41649 5.03817 7.47424C4.96278 7.60897 4.88519 7.74226 4.80633 7.87498C4.66119 8.11955 4.51844 8.36543 4.37644 8.61184C4.35405 8.6507 4.33166 8.68955 4.30859 8.72958C4.26269 8.80925 4.2168 8.88893 4.17091 8.96861C4.0604 9.16043 3.94974 9.35215 3.83908 9.54389C3.79522 9.61991 3.75135 9.69594 3.70749 9.77196C3.61975 9.92402 3.53202 10.0761 3.44429 10.2281C3.42257 10.2658 3.40086 10.3034 3.37848 10.3422C3.33465 10.4181 3.29081 10.4941 3.24697 10.5701C3.13681 10.761 3.02669 10.9519 2.91667 11.1429C2.89475 11.1809 2.87284 11.2189 2.85026 11.2581C2.80635 11.3343 2.76245 11.4105 2.71857 11.4867C2.58884 11.7117 2.45773 11.9359 2.32567 12.1596C2.24459 12.2974 2.16446 12.4358 2.08484 12.5746C2.05126 12.6329 2.01744 12.6912 1.9833 12.7493C1.77163 13.1119 1.66688 13.4237 1.77478 13.8477C1.9574 14.3175 2.40769 14.5412 2.82359 14.7721C3.10738 14.931 3.3896 15.0923 3.6702 15.2568C3.97686 15.4364 4.28477 15.6138 4.59358 15.7897C4.93473 15.9841 5.27469 16.1803 5.61362 16.3786C5.98293 16.5945 6.35361 16.8081 6.72433 17.0216C6.87692 17.1095 7.02946 17.1975 7.18199 17.2855C7.25741 17.329 7.33284 17.3725 7.40829 17.416C7.58575 17.5182 7.7631 17.6207 7.94009 17.7238C8.02326 17.7722 8.1065 17.8205 8.18974 17.8688C8.24813 17.9028 8.30644 17.9369 8.36475 17.971C8.75605 18.198 9.07685 18.3334 9.54111 18.2204C10.0442 18.0329 10.2367 17.5624 10.4892 17.1209C10.5238 17.0606 10.5583 17.0004 10.5929 16.9402C10.6285 16.8782 10.664 16.8163 10.6996 16.7543C10.8104 16.5612 10.9218 16.3685 11.0331 16.1757C11.077 16.0996 11.1208 16.0236 11.1647 15.9476C11.2524 15.7955 11.3402 15.6435 11.4279 15.4914C11.4496 15.4538 11.4713 15.4161 11.4937 15.3774C11.5375 15.3014 11.5814 15.2254 11.6252 15.1495C11.7354 14.9586 11.8455 14.7676 11.9555 14.5766C12.1868 14.1754 12.419 13.7747 12.6529 13.375C12.7628 13.1868 12.8719 12.9981 12.9799 12.8088C12.9917 12.7881 13.0035 12.7674 13.0157 12.7461C13.0753 12.6416 13.1347 12.537 13.1941 12.4324C13.3054 12.2367 13.418 12.0422 13.5351 11.85C13.556 11.8156 13.5768 11.7812 13.5983 11.7458C13.6368 11.6825 13.6758 11.6195 13.7152 11.5567C13.8908 11.2681 13.9982 10.9669 13.9528 10.6259C13.8652 10.2708 13.6905 10.0355 13.388 9.84061C13.2903 9.7819 13.1917 9.72515 13.0926 9.66889C13.0558 9.64774 13.0191 9.62659 12.9812 9.6048C12.9034 9.56009 12.8256 9.51548 12.7477 9.47097C12.5953 9.38376 12.4432 9.29584 12.2911 9.20793C12.1384 9.11966 11.9855 9.03162 11.8326 8.94356C11.6421 8.8338 11.4516 8.72392 11.2612 8.61404C11.1852 8.57018 11.1091 8.52632 11.0331 8.48245C8.75207 7.16663 8.75207 7.16663 8.63786 7.10074C8.56235 7.05719 8.48683 7.01364 8.4113 6.9701C8.23426 6.86803 8.05727 6.76586 7.88051 6.66331C7.81801 6.62706 7.7555 6.59084 7.69298 6.55463C7.61462 6.50924 7.5363 6.46378 7.45802 6.41825C6.861 6.07269 6.30232 5.84698 5.71655 6.35082Z" stroke="#333333" stroke-width="0.8" mask="url(#path-1-outside-1_285_1171)"/>
<path d="M8.72319 10.8304C9.0746 11.0855 9.32154 11.4289 9.40092 11.8611C9.435 12.3884 9.36802 12.8137 9.0149 13.2296C8.73918 13.523 8.38302 13.7032 7.98035 13.7285C7.47538 13.7406 7.06926 13.6094 6.69357 13.2652C6.37828 12.922 6.25885 12.493 6.26807 12.0374C6.28892 11.6053 6.48631 11.2477 6.79748 10.9554C7.34996 10.5015 8.11751 10.4635 8.72319 10.8304Z" fill="#333333"/>
<path d="M15.8841 3.63881C16.1551 3.79563 16.3447 4.01225 16.4418 4.31276C16.5053 4.65635 16.4618 4.97226 16.2688 5.26399C16.084 5.49872 15.8392 5.64482 15.5431 5.68519C15.2085 5.71864 14.9378 5.62068 14.666 5.42751C14.4365 5.23819 14.3411 4.98366 14.3048 4.69256C14.2927 4.39507 14.3793 4.12042 14.5673 3.88936C14.9207 3.53299 15.423 3.42475 15.8841 3.63881Z" fill="#333333"/>
<path d="M12.0933 3.63838C12.4001 3.81668 12.5663 4.04741 12.6648 4.38675C12.7049 4.75435 12.6451 5.05325 12.4148 5.34511C12.2177 5.55495 11.9615 5.66519 11.6773 5.69216C11.3549 5.69932 11.0863 5.60238 10.8477 5.38157C10.6416 5.16772 10.5215 4.91193 10.5088 4.61264C10.5275 4.284 10.643 4.02414 10.8751 3.79024C11.2274 3.51143 11.6817 3.44832 12.0933 3.63838Z" fill="#333333"/>
<path d="M16.0417 7.5262C16.2482 7.69185 16.4063 7.91082 16.4551 8.17506C16.4848 8.53329 16.4436 8.82693 16.2205 9.11588C16.0076 9.34375 15.7155 9.45918 15.4089 9.48431C15.1167 9.4758 14.8435 9.37158 14.6369 9.16371C14.3968 8.9011 14.2996 8.66137 14.3049 8.30665C14.3353 8.00118 14.4685 7.7433 14.7005 7.54347C15.1179 7.26076 15.6169 7.23756 16.0417 7.5262Z" fill="#333333"/>
</svg>
