<svg width="18" height="15" viewBox="0 0 18 15" fill="none" xmlns="http://www.w3.org/2000/svg">
<path fill-rule="evenodd" clip-rule="evenodd" d="M1.09835 10.0983C1.80161 9.39507 2.75544 9 3.75001 9H9.75001C10.7446 9 11.6984 9.39507 12.4017 10.0983C13.1049 10.8015 13.5 11.7553 13.5 12.7499V14.2498C13.5 14.664 13.1642 14.9998 12.75 14.9998C12.3358 14.9998 12 14.664 12 14.2498V12.7499C12 12.1531 11.763 11.5809 11.341 11.1589C10.919 10.737 10.3468 10.4999 9.75001 10.4999H3.75001C3.15327 10.4999 2.58097 10.737 2.15901 11.1589C1.73706 11.5809 1.5 12.1531 1.5 12.7499V14.2498C1.5 14.664 1.16422 14.9998 0.750001 14.9998C0.335787 14.9998 0 14.664 0 14.2498V12.7499C0 11.7553 0.395089 10.8015 1.09835 10.0983Z" fill="#333333"/>
<path fill-rule="evenodd" clip-rule="evenodd" d="M6.75001 1.49995C5.50736 1.49995 4.5 2.50727 4.5 3.74986C4.5 4.99246 5.50736 5.99978 6.75001 5.99978C7.99265 5.99978 9.00001 4.99246 9.00001 3.74986C9.00001 2.50727 7.99265 1.49995 6.75001 1.49995ZM3 3.74986C3 1.67887 4.67893 0 6.75001 0C8.82108 0 10.5 1.67887 10.5 3.74986C10.5 5.82086 8.82108 7.49973 6.75001 7.49973C4.67893 7.49973 3 5.82086 3 3.74986Z" fill="#333333"/>
<path fill-rule="evenodd" clip-rule="evenodd" d="M14.274 9.65836C14.3776 9.25732 14.7866 9.01615 15.1877 9.1197C15.9922 9.32741 16.7049 9.79642 17.214 10.4531C17.723 11.1097 17.9996 11.9168 18.0002 12.7477L18.0002 14.2482C18.0002 14.6624 17.6644 14.9982 17.2502 14.9982C16.836 14.9982 16.5002 14.6624 16.5002 14.2482V12.7488C16.5002 12.7487 16.5002 12.7489 16.5002 12.7488C16.4998 12.2504 16.3338 11.766 16.0285 11.372C15.723 10.978 15.2954 10.6966 14.8127 10.572C14.4116 10.4685 14.1704 10.0594 14.274 9.65836Z" fill="#333333"/>
<path fill-rule="evenodd" clip-rule="evenodd" d="M11.2736 0.66374C11.3764 0.262485 11.7849 0.0204891 12.1862 0.123227C12.9929 0.329751 13.7078 0.798859 14.2184 1.45659C14.7289 2.11433 15.0061 2.92328 15.0061 3.75591C15.0061 4.58854 14.7289 5.39749 14.2184 6.05522C13.7078 6.71295 12.9929 7.18206 12.1862 7.38859C11.7849 7.49132 11.3764 7.24933 11.2736 6.84807C11.1709 6.44682 11.4129 6.03825 11.8142 5.93552C12.2981 5.8116 12.7271 5.53014 13.0335 5.13549C13.3398 4.74085 13.5061 4.25548 13.5061 3.75591C13.5061 3.25633 13.3398 2.77096 13.0335 2.37632C12.7271 1.98168 12.2981 1.70021 11.8142 1.5763C11.4129 1.47356 11.1709 1.06499 11.2736 0.66374Z" fill="#333333"/>
</svg>
