<svg width="75" height="21" viewBox="0 0 75 21" fill="none" xmlns="http://www.w3.org/2000/svg">
<path opacity="0.8" d="M36.0888 9.58183C42.2463 10.1617 45.3224 8.55219 45.3013 4.33609C44.9947 4.31441 44.6617 4.3415 44.3605 4.26021C43.6258 4.06512 42.8436 3.92962 42.2252 3.52861C42.0666 3.42564 42.426 1.95164 42.5793 1.94622C43.3721 1.90829 44.334 1.9137 44.9471 2.34181C46.8922 3.68576 47.1617 6.12439 45.7135 8.01026C45.2484 8.61721 44.6882 9.14827 44.1015 9.79315C51.1469 11.2726 55.0898 9.39215 54.8309 4.97012C53.3404 4.50407 51.8763 4.04343 50.0106 3.46358C51.8182 1.50184 53.055 1.28507 54.5983 2.85121C56.7547 5.04597 56.5962 6.79096 53.3668 10.7632C57.0983 10.2701 60.8879 11.8254 63.5888 8.25413C64.1702 7.48461 64.6723 6.61752 65.0634 5.72878C65.7875 4.08136 65.7558 2.72115 63.5359 2.41226C63.0603 2.34723 62.6268 1.96248 61.6702 1.46933C62.5951 0.808195 63.2822 -0.0642852 63.8266 0.0170021C64.6459 0.141643 65.7029 0.764858 66.0676 1.48561C67.241 3.79959 66.5328 6.04852 65.1903 8.07529C64.6247 8.93151 63.8319 9.62517 63.092 10.4489C66.6438 11.2021 69.889 11.4514 71.4588 7.09442C72.7167 9.26208 73.7896 11.1046 75 13.1964C74.1121 13.4023 73.0497 13.6516 71.9873 13.9009C72.093 14.0038 72.1934 14.1122 72.2991 14.2152C71.5539 14.9197 70.8034 15.6242 70.0581 16.3287C69.5719 15.0606 69.0856 13.7925 68.5993 12.519C68.8266 12.3618 69.0592 12.1993 69.2865 12.0421C67.722 11.9012 66.1575 11.7549 65.1638 11.6682C65.6078 13.7817 66.2262 15.7867 66.3266 17.8243C66.3531 18.3554 64.8203 19.19 63.8848 19.4555C63.2875 19.6289 62.4788 19.0166 61.7653 18.7565C62.1987 18.5289 62.6321 18.2958 63.0655 18.0682C63.7949 17.1199 65.222 16.0794 65.1216 15.234C64.8732 13.1639 63.1924 12.1072 61.1363 12.0204C59.3974 11.9446 57.6586 12.0042 54.8731 12.0042C58.0497 14.9305 57.0507 17.2499 55.407 19.4122C54.963 19.9974 54.1068 20.3443 53.3774 20.5719C53.1712 20.6369 52.3731 19.7157 52.4524 19.5422C52.7907 18.8052 53.2717 18.0628 53.8795 17.548C54.2917 17.2012 55.0053 17.2228 55.5338 17.0928C56.0042 13.0176 51.6279 10.709 45.2273 11.5002C47.1617 14.5295 47.3467 16.5292 45.8192 17.9382C44.6987 18.9678 43.7579 18.9082 41.9979 17.5371C42.796 16.9573 43.4725 16.1173 44.2864 15.9493C46.9133 15.3966 45.9778 13.8684 44.8203 13.1476C43.1025 12.0746 41.0835 11.3539 39.1068 10.9474C37.3731 10.5898 35.5127 10.8716 34.0011 10.8716C34.9894 13.2669 36.0306 15.4941 36.7917 17.8135C37.0084 18.4801 36.6649 19.8024 36.1575 20.1221C35.6184 20.4635 34.5772 19.9703 33.24 19.7536C35.6871 17.2445 35.0053 15.1365 33.7368 13.191C31.3372 9.51136 27.759 12.2318 24.7252 11.1805C25.703 13.5053 26.7178 15.3749 27.2622 17.3854C27.7114 19.0545 26.3213 20.4256 25.1585 19.7048C24.4609 19.2713 24.1226 18.2145 23.6258 17.4342C24.3552 17.1686 25.0846 16.9031 25.8615 16.6213C25.1321 11.7928 22.9228 10.6927 14.852 11.6032C15.2273 12.286 15.5761 12.8333 15.8404 13.4132C16.3901 14.6325 17.2516 15.8464 17.3256 17.1036C17.4049 18.3771 16.686 19.6994 16.3214 21C15.1533 20.4689 13.9852 19.9378 12.8171 19.4068C12.8541 19.0599 12.8964 18.7131 12.9334 18.3717C13.9535 17.9815 14.9736 17.5968 16.0148 17.1957C15.7082 13.8088 14.297 12.2697 11.0941 11.9825C10.0423 11.8904 8.98521 11.8199 7.9387 11.7116C7.05075 11.6194 6.16809 11.4894 5.10043 11.8308C5.57612 12.2426 6.0518 12.6599 6.90804 13.4023C5.8351 14.6325 4.76745 15.8464 3.59409 17.1903C2.42601 15.1148 1.57505 13.5974 0.544397 11.7549C0.935517 11.484 1.61205 11.0179 1.83404 10.8662C1.21036 9.27293 0.607822 7.7339 0 6.19486C0.295983 5.99977 0.591967 5.80467 0.893236 5.60958C3.59408 6.27071 5.10571 8.51965 6.58034 10.5085C8.27168 10.5085 10 10.9312 11.3795 10.4001C13.1343 9.72273 14.9736 8.55759 16.0782 7.05648C16.7759 6.10813 16.2103 4.17351 16.2103 2.67783C15.9461 2.85124 15.6818 3.02463 15.4123 3.19805C14.2125 2.54775 13.0127 1.89204 11.3953 1.00872C13.8478 -0.709156 15.5074 0.000738136 16.6332 1.39888C19.0275 4.374 17.6374 7.27327 15.8721 10.0262C22.1089 11.5598 26.8552 9.04533 27.5211 4.23312C26.4059 3.34438 25.407 2.54774 24.2178 1.59939C26.1575 -0.048037 27.2252 0.829893 28.1131 2.03295C29.852 4.39028 28.8742 6.8939 24.6723 10.709C27.1142 10.4922 29.3974 10.5085 31.5698 10.0208C32.7537 9.75524 33.8583 8.75811 34.815 7.88021C36.3953 6.41703 34.4556 5.63666 34.1015 4.5149C33.8901 3.84834 34.2812 2.9813 34.4028 2.20094C35.0476 2.65073 36.1998 3.05174 36.2421 3.5503C36.3953 5.45785 36.1945 7.39789 36.1152 9.56556L36.0888 9.58183Z" fill="#1E1E1E"/>
</svg>
